<?xml version="1.0" encoding="UTF-8" standalone="no"?>
<!-- Created with Inkscape (http://www.inkscape.org/) -->

<svg
   xmlns:dc="http://purl.org/dc/elements/1.1/"
   xmlns:cc="http://creativecommons.org/ns#"
   xmlns:rdf="http://www.w3.org/1999/02/22-rdf-syntax-ns#"
   xmlns:svg="http://www.w3.org/2000/svg"
   xmlns="http://www.w3.org/2000/svg"
   xmlns:sodipodi="http://sodipodi.sourceforge.net/DTD/sodipodi-0.dtd"
   xmlns:inkscape="http://www.inkscape.org/namespaces/inkscape"
   width="32"
   height="32"
   viewBox="0 0 32 32.000001"
   id="svg2"
   version="1.1"
   inkscape:version="0.91 r13725"
   sodipodi:docname="appicon.svg">
  <defs
     id="defs4" />
  <sodipodi:namedview
     id="base"
     pagecolor="#ffffff"
     bordercolor="#666666"
     borderopacity="1.0"
     inkscape:pageopacity="0"
     inkscape:pageshadow="2"
     inkscape:zoom="22.4"
     inkscape:cx="-1.3344592"
     inkscape:cy="15.037626"
     inkscape:document-units="px"
     inkscape:current-layer="layer1"
     showgrid="true"
     units="px"
     showborder="true"
     inkscape:snap-global="false"
     inkscape:window-width="1920"
     inkscape:window-height="1018"
     inkscape:window-x="-8"
     inkscape:window-y="-8"
     inkscape:window-maximized="1">
    <inkscape:grid
       type="xygrid"
       id="grid4806" />
  </sodipodi:namedview>
  <metadata
     id="metadata7">
    <rdf:RDF>
      <cc:Work
         rdf:about="">
        <dc:format>image/svg+xml</dc:format>
        <dc:type
           rdf:resource="http://purl.org/dc/dcmitype/StillImage" />
        <dc:title />
      </cc:Work>
    </rdf:RDF>
  </metadata>
  <g
     inkscape:label="Layer 1"
     inkscape:groupmode="layer"
     id="layer1"
     transform="translate(0,-1020.3622)">
    <path
       style="fill:#404040;fill-opacity:1;stroke:#000000;stroke-width:0;stroke-linecap:butt;stroke-miterlimit:4;stroke-dasharray:none;stroke-opacity:1"
       d="m 12,1021.3622 a 11,11 0 0 0 -11,11 11,11 0 0 0 11,11 11,11 0 0 0 7,-2.5254 l 10.511719,10.5254 1.417969,-1.4414 -10.490235,-10.5059 A 11,11 0 0 0 23,1032.3622 a 11,11 0 0 0 -11,-11 z"
       id="path4138" />
    <path
       style="fill:#ff6565;fill-opacity:1;stroke:#000000;stroke-width:0;stroke-linecap:butt;stroke-miterlimit:4;stroke-dasharray:none;stroke-opacity:1"
       d="m 12,1023.3622 a 9,9 0 0 1 9,9 9,9 0 0 1 -9,9 9,9 0 0 1 -9,-9 9,9 0 0 1 9,-9 z"
       id="rect4810" />
    <path
       style="fill:#404040;fill-opacity:1;stroke:#000000;stroke-width:0;stroke-linecap:butt;stroke-miterlimit:4;stroke-dasharray:none;stroke-opacity:1"
       d="M 15.996094 6.4472656 L 9.0039062 8.9882812 L 9.0039062 9 L 9 9 L 9 16.058594 A 1.5 1 0 0 0 8.5 16 A 1.5 1 0 0 0 7 17 A 1.5 1 0 0 0 8.5 18 A 1.5 1 0 0 0 10 17 L 10 9.6777344 L 15.009766 7.9355469 L 15.009766 14.066406 A 1.5 1 0 0 0 14.509766 14.009766 A 1.5 1 0 0 0 13.009766 15.009766 A 1.5 1 0 0 0 14.509766 16.009766 A 1.5 1 0 0 0 16.009766 15.009766 L 16.009766 7.0097656 L 16 7.0097656 L 15.996094 6.4472656 z "
       transform="translate(0,1020.3622)"
       id="path4821" />
  </g>
</svg>
